<svg xmlns="http://www.w3.org/2000/svg" viewBox="0 0 1280 720" width="1280" height="720">
  
  <rect width="1280" height="720" fill="#F4F6F4" />

  
  <g id="header-group">
    <path fill="#2B583E" fill-opacity="0.08" d="M73,40 H167 A13,13 0 0 1 180,53 V53 A13,13 0 0 1 167,66 H73 A13,13 0 0 1 60,53 V53 A13,13 0 0 1 73,40 Z" />
    <text x="78" y="58" font-family="'Plus Jakarta Sans', 'Microsoft YaHei', sans-serif" font-size="12" font-weight="bold" fill="#2B583E">未来规划篇</text>
    <text x="196" y="60" font-family="Quicksand, 'Microsoft YaHei', sans-serif" font-size="32" font-weight="bold" fill="#1C2E24">下一步：向更深处扎根，向更广处伸展</text>
    <line x1="60" y1="85" x2="1220" y2="85" stroke="#D1DAD4" stroke-width="1" />
  </g>

  
  <g id="top-vision-text">
    <text x="60" y="155" font-family="Quicksand, 'Microsoft YaHei', sans-serif" font-size="28" font-weight="bold" fill="#2B583E">
      植物不会停下呼吸，我们的探索亦然
    </text>
    
    <text fill="#4D5F54" font-size="16" font-family="'Plus Jakarta Sans', 'Microsoft YaHei', sans-serif" x="60" y="195">DYN Plant Pal (PlantEcho) 的 MVP 版本已经彻底证明了「人文理念 ＋ 智能物联」的巨大生命力。</text><text fill="#4D5F54" font-size="16" font-family="'Plus Jakarta Sans', 'Microsoft YaHei', sans-serif" x="60" y="221">接下来，我们将从物理标定、用户终端功能外展以及大模型长跑压测三个方面深入演进，实现更完整的生态：</text></g>

  
  
  
  <g id="bento-future-1">
    <path fill="#FFFFFF" stroke="#D1DAD4" stroke-width="1.5" d="M72,300 H418 A12,12 0 0 1 430,312 V588 A12,12 0 0 1 418,600 H72 A12,12 0 0 1 60,588 V312 A12,12 0 0 1 72,300 Z" />
    <path d="M 60,312 A 12,12 0 0,1 72,300 L 418,300 A 12,12 0 0,1 430,312 L 430,315 L 60,315 Z" fill="#8E5B3C" />

    <path fill="#8E5B3C" fill-opacity="0.08" d="M108,340 H108 A18,18 0 0 1 126,358 V358 A18,18 0 0 1 108,376 H108 A18,18 0 0 1 90,358 V358 A18,18 0 0 1 108,340 Z" />
    
  <g transform="translate(98.0, 348.0) scale(0.8333333333333334)" fill="#8E5B3C">
    <path d="M3.055 14.328l-.018 -.168l-.004 -.043a11 11 0 0 1 -.047 -1.12c.018 -6.29 4.29 -9.997 13 -9.997h4.014a1 1 0 0 1 1 1l-.002 2.057c-.498 8.701 -4.74 12.943 -11.998 12.943h-2.631a16 16 0 0 0 -.375 2.11a1 1 0 1 1 -1.988 -.22q .174 -1.568 .58 -2.947l-.118 -.146l-.208 -.28l-.157 -.229l-.182 -.293l-.098 -.171l-.065 -.122a6 6 0 0 1 -.397 -.941l-.072 -.237l-.085 -.327l-.057 -.268l-.043 -.242zm8.539 -4.242c-2.845 1.265 -4.854 3.13 -6.108 5.583q .098 .2 .218 .4l.185 .281l.07 .097q .12 .164 .258 .329l.197 .224h.649c1.037 -2.271 2.777 -3.946 5.343 -5.086a1 1 0 0 0 -.812 -1.828" />
  </g>
    
    <text x="140" y="363" font-family="Quicksand, 'Microsoft YaHei', sans-serif" font-size="16" font-weight="bold" fill="#1C2E24">1. 硬件端二期深水研发</text>
    <text fill="#4D5F54" font-size="14" font-family="'Plus Jakarta Sans', 'Microsoft YaHei', sans-serif" x="90" y="410"><tspan>· <tspan fill="#1C2E24" font-weight="bold">精密物理标定</tspan>：针对不同土壤</tspan>
      </text><text fill="#4D5F54" font-size="14" font-family="'Plus Jakarta Sans', 'Microsoft YaHei', sans-serif" x="90" y="434">  基底加入干土/湿土现场精密标定</text><text fill="#4D5F54" font-size="14" font-family="'Plus Jakarta Sans', 'Microsoft YaHei', sans-serif" x="90" y="458">  与动态漂移过滤校准算法。</text><text fill="#4D5F54" font-size="14" font-family="'Plus Jakarta Sans', 'Microsoft YaHei', sans-serif" x="90" y="486"><tspan>· <tspan fill="#1C2E24" font-weight="bold">长耐久稳定性观察</tspan>：进行大于</tspan>
      </text><text fill="#4D5F54" font-size="14" font-family="'Plus Jakarta Sans', 'Microsoft YaHei', sans-serif" x="90" y="510">  半年的真实野外 MQTT 长跑压测，</text><text fill="#4D5F54" font-size="14" font-family="'Plus Jakarta Sans', 'Microsoft YaHei', sans-serif" x="90" y="534">  深度打磨 OTA 断线自愈能力。</text></g>

  
  <g id="bento-future-2">
    <path fill="#FFFFFF" stroke="#D1DAD4" stroke-width="1.5" d="M467,300 H813 A12,12 0 0 1 825,312 V588 A12,12 0 0 1 813,600 H467 A12,12 0 0 1 455,588 V312 A12,12 0 0 1 467,300 Z" />
    <path d="M 455,312 A 12,12 0 0,1 467,300 L 813,300 A 12,12 0 0,1 825,312 L 825,315 L 455,315 Z" fill="#2B583E" />

    <path fill="#2B583E" fill-opacity="0.08" d="M503,340 H503 A18,18 0 0 1 521,358 V358 A18,18 0 0 1 503,376 H503 A18,18 0 0 1 485,358 V358 A18,18 0 0 1 503,340 Z" />
    
  <g transform="translate(493.0, 348.0) scale(0.8333333333333334)" fill="#2B583E">
    <path d="M8.813 11.612c.457 -.38 .918 -.38 1.386 .011l.108 .098l4.986 4.986l.094 .083a1 1 0 0 0 1.403 -1.403l-.083 -.094l-1.292 -1.293l.292 -.293l.106 -.095c.457 -.38 .918 -.38 1.386 .011l.108 .098l4.674 4.675a4 4 0 0 1 -3.775 3.599l-.206 .005h-12a4 4 0 0 1 -3.98 -3.603l6.687 -6.69l.106 -.095zm9.187 -9.612a4 4 0 0 1 3.995 3.8l.005 .2v9.585l-3.293 -3.292l-.15 -.137c-1.256 -1.095 -2.85 -1.097 -4.096 -.017l-.154 .14l-.307 .306l-2.293 -2.292l-.15 -.137c-1.256 -1.095 -2.85 -1.097 -4.096 -.017l-.154 .14l-5.307 5.306v-9.585a4 4 0 0 1 3.8 -3.995l.2 -.005h12zm-2.99 5l-.127 .007a1 1 0 0 0 0 1.986l.117 .007l.127 -.007a1 1 0 0 0 0 -1.986l-.117 -.007z" />
  </g>
    
    <text x="535" y="363" font-family="Quicksand, 'Microsoft YaHei', sans-serif" font-size="16" font-weight="bold" fill="#1C2E24">2. Tauri 客户端体验补全</text>
    <text fill="#4D5F54" font-size="14" font-family="'Plus Jakarta Sans', 'Microsoft YaHei', sans-serif" x="485" y="410"><tspan>· <tspan fill="#1C2E24" font-weight="bold">视觉护眼深色模式</tspan>：全方位重构</tspan>
      </text><text fill="#4D5F54" font-size="14" font-family="'Plus Jakarta Sans', 'Microsoft YaHei', sans-serif" x="485" y="434">  Tailwind 配置，落地完美无缝切换</text><text fill="#4D5F54" font-size="14" font-family="'Plus Jakarta Sans', 'Microsoft YaHei', sans-serif" x="485" y="458">  的深色模式，符合夜间查看习惯。</text><text fill="#4D5F54" font-size="14" font-family="'Plus Jakarta Sans', 'Microsoft YaHei', sans-serif" x="485" y="486"><tspan>· <tspan fill="#1C2E24" font-weight="bold">传感器趋势图表与管理</tspan>：接入</tspan>
      </text><text fill="#4D5F54" font-size="14" font-family="'Plus Jakarta Sans', 'Microsoft YaHei', sans-serif" x="485" y="510">  精美的折线与趋势图，补齐头像</text><text fill="#4D5F54" font-size="14" font-family="'Plus Jakarta Sans', 'Microsoft YaHei', sans-serif" x="485" y="534">  裁剪以及主动提醒阈值管理 UI。</text></g>

  
  <g id="bento-future-3">
    <path fill="#FFFFFF" stroke="#D1DAD4" stroke-width="1.5" d="M862,300 H1208 A12,12 0 0 1 1220,312 V588 A12,12 0 0 1 1208,600 H862 A12,12 0 0 1 850,588 V312 A12,12 0 0 1 862,300 Z" />
    <path d="M 850,312 A 12,12 0 0,1 862,300 L 1208,300 A 12,12 0 0,1 1220,312 L 1220,315 L 850,315 Z" fill="#DDA43B" />

    <path fill="#DDA43B" fill-opacity="0.08" d="M898,340 H898 A18,18 0 0 1 916,358 V358 A18,18 0 0 1 898,376 H898 A18,18 0 0 1 880,358 V358 A18,18 0 0 1 898,340 Z" />
    <use data-icon="tabler-filled/rocket" x="888" y="348" width="20" height="20" fill="#DDA43B" />
    
    <text x="930" y="363" font-family="Quicksand, 'Microsoft YaHei', sans-serif" font-size="16" font-weight="bold" fill="#1C2E24">3. 记忆系统与语料压测</text>
    <text fill="#4D5F54" font-size="14" font-family="'Plus Jakarta Sans', 'Microsoft YaHei', sans-serif" x="880" y="410"><tspan>· <tspan fill="#1C2E24" font-weight="bold">端侧本地大模型降维</tspan>：积极尝试</tspan>
      </text><text fill="#4D5F54" font-size="14" font-family="'Plus Jakarta Sans', 'Microsoft YaHei', sans-serif" x="880" y="434">  在树莓派/边缘计算端部署轻量 LLM</text><text fill="#4D5F54" font-size="14" font-family="'Plus Jakarta Sans', 'Microsoft YaHei', sans-serif" x="880" y="458">  ，提供本地无网高共情响应兜底。</text><text fill="#4D5F54" font-size="14" font-family="'Plus Jakarta Sans', 'Microsoft YaHei', sans-serif" x="880" y="486"><tspan>· <tspan fill="#1C2E24" font-weight="bold">长尾真实养护压测</tspan>：使用极其</tspan>
      </text><text fill="#4D5F54" font-size="14" font-family="'Plus Jakarta Sans', 'Microsoft YaHei', sans-serif" x="880" y="510">  丰富的长尾植物真实习性资料语料</text><text fill="#4D5F54" font-size="14" font-family="'Plus Jakarta Sans', 'Microsoft YaHei', sans-serif" x="880" y="534">  压测主动发言 Prompt，确发言的合理性。</text></g>

  
  <g id="footer-group">
    <text x="60" y="685" font-family="'Plus Jakarta Sans', 'Microsoft YaHei', sans-serif" font-size="10" fill="#809085">DYN Plant Pal | 期末项目答辩</text>
    <text x="1200" y="685" font-family="'Plus Jakarta Sans', 'Microsoft YaHei', sans-serif" font-size="10" fill="#809085" text-anchor="end">16</text>
  </g>
</svg>