<svg xmlns="http://www.w3.org/2000/svg" viewBox="0 0 1280 720" width="1280" height="720">
  
  <rect width="1280" height="720" fill="#F5F0E8" />

  
  <path fill="#4A7C28" d="M62,50 H62 A2,2 0 0 1 64,52 V108 A2,2 0 0 1 62,110 H62 A2,2 0 0 1 60,108 V52 A2,2 0 0 1 62,50 Z" />

  
  <text x="80" y="88" font-family="&quot;Microsoft YaHei&quot;, &quot;PingFang SC&quot;, Arial, sans-serif" font-size="40" font-weight="bold" fill="#2D5016">
    设计哲学：人文关怀
  </text>

  
  
  <g id="card-1">
    <path fill="#FFFFFF" d="M72,140 H268 A12,12 0 0 1 280,152 V378 A12,12 0 0 1 268,390 H72 A12,12 0 0 1 60,378 V152 A12,12 0 0 1 72,140 Z" />
    <path fill="none" stroke="#E0D8C8" stroke-width="1" d="M72,140 H268 A12,12 0 0 1 280,152 V378 A12,12 0 0 1 268,390 H72 A12,12 0 0 1 60,378 V152 A12,12 0 0 1 72,140 Z" />
    <circle cx="170" cy="190" r="24" fill="#4A7C28" fill-opacity="0.1" />
    
  <g transform="translate(150.0, 170.0) scale(1.6666666666666667)" fill="#4A7C28">
    <path d="M5.821 4.91c3.899 -2.765 9.468 -2.539 13.073 .535c3.667 3.129 4.168 8.238 1.152 11.898c-2.841 3.447 -7.965 4.583 -12.231 2.805l-.233 -.101l-4.374 .931l-.04 .006l-.035 .007h-.018l-.022 .005h-.038l-.033 .004l-.021 -.001l-.023 .001l-.033 -.003h-.035l-.022 -.004l-.022 -.002l-.035 -.007l-.034 -.005l-.016 -.004l-.024 -.005l-.049 -.016l-.024 -.005l-.011 -.005l-.022 -.007l-.045 -.02l-.03 -.012l-.011 -.006l-.014 -.006l-.031 -.018l-.045 -.024l-.016 -.011l-.037 -.026l-.04 -.027l-.002 -.004l-.013 -.009l-.043 -.04l-.025 -.02l-.006 -.007l-.056 -.062l-.013 -.014l-.011 -.014l-.039 -.056l-.014 -.019l-.005 -.01l-.042 -.073l-.007 -.012l-.004 -.008l-.007 -.012l-.014 -.038l-.02 -.042l-.004 -.016l-.004 -.01l-.017 -.061l-.007 -.018l-.002 -.015l-.005 -.019l-.005 -.033l-.008 -.042l-.002 -.031l-.003 -.01v-.016l-.004 -.054l.001 -.036l.001 -.023l.002 -.053l.004 -.025v-.019l.008 -.035l.005 -.034l.005 -.02l.004 -.02l.018 -.06l.003 -.013l1.15 -3.45l-.022 -.037c-2.21 -3.747 -1.209 -8.391 2.413 -11.119z" />
  </g>
    <text x="170" y="240" text-anchor="middle" font-family="&quot;Microsoft YaHei&quot;, &quot;PingFang SC&quot;, Arial, sans-serif" font-size="18" font-weight="bold" fill="#2D5016">让系统说人话</text>
    <text x="170" y="268" text-anchor="middle" font-family="&quot;Microsoft YaHei&quot;, &quot;PingFang SC&quot;, Arial, sans-serif" font-size="14" fill="#6B7B6B">把否定句翻译成邀请句</text>
    <line x1="100" y1="285" x2="240" y2="285" stroke="#E0D8C8" stroke-width="1" />
    <text x="170" y="310" text-anchor="middle" font-family="&quot;Microsoft YaHei&quot;, &quot;PingFang SC&quot;, Arial, sans-serif" font-size="13" fill="#9B8B7B">"我有点渴了·23%"</text>
    <text x="170" y="330" text-anchor="middle" font-family="&quot;Microsoft YaHei&quot;, &quot;PingFang SC&quot;, Arial, sans-serif" font-size="13" fill="#9B8B7B">而非"水分:23%"</text>
    <text x="170" y="360" text-anchor="middle" font-family="&quot;Microsoft YaHei&quot;, &quot;PingFang SC&quot;, Arial, sans-serif" font-size="12" fill="#C45A28" fill-opacity="0.7">❌ 拒绝冰冷的系统语言</text>
  </g>

  
  <g id="card-2">
    <path fill="#FFFFFF" d="M312,140 H508 A12,12 0 0 1 520,152 V378 A12,12 0 0 1 508,390 H312 A12,12 0 0 1 300,378 V152 A12,12 0 0 1 312,140 Z" />
    <path fill="none" stroke="#E0D8C8" stroke-width="1" d="M312,140 H508 A12,12 0 0 1 520,152 V378 A12,12 0 0 1 508,390 H312 A12,12 0 0 1 300,378 V152 A12,12 0 0 1 312,140 Z" />
    <circle cx="410" cy="190" r="24" fill="#E8A849" fill-opacity="0.1" />
    
  <g transform="translate(390.0, 170.0) scale(1.6666666666666667)" fill="#E8A849">
    <path d="M17 3.34a10 10 0 1 1 -14.995 8.984l-.005 -.324l.005 -.324a10 10 0 0 1 14.995 -8.336zm-5 2.66a1 1 0 0 0 -.993 .883l-.007 .117v5l.009 .131a1 1 0 0 0 .197 .477l.087 .1l3 3l.094 .082a1 1 0 0 0 1.226 0l.094 -.083l.083 -.094a1 1 0 0 0 0 -1.226l-.083 -.094l-2.707 -2.708v-4.585l-.007 -.117a1 1 0 0 0 -.993 -.883z" />
  </g>
    <text x="410" y="240" text-anchor="middle" font-family="&quot;Microsoft YaHei&quot;, &quot;PingFang SC&quot;, Arial, sans-serif" font-size="18" font-weight="bold" fill="#2D5016">尊重用户的节奏</text>
    <text x="410" y="268" text-anchor="middle" font-family="&quot;Microsoft YaHei&quot;, &quot;PingFang SC&quot;, Arial, sans-serif" font-size="14" fill="#6B7B6B">植物是慢的载体</text>
    <line x1="340" y1="285" x2="480" y2="285" stroke="#E0D8C8" stroke-width="1" />
    <text x="410" y="310" text-anchor="middle" font-family="&quot;Microsoft YaHei&quot;, &quot;PingFang SC&quot;, Arial, sans-serif" font-size="13" fill="#9B8B7B">5秒撤销 toast</text>
    <text x="410" y="330" text-anchor="middle" font-family="&quot;Microsoft YaHei&quot;, &quot;PingFang SC&quot;, Arial, sans-serif" font-size="13" fill="#9B8B7B">380ms 缓动动画</text>
    <text x="410" y="360" text-anchor="middle" font-family="&quot;Microsoft YaHei&quot;, &quot;PingFang SC&quot;, Arial, sans-serif" font-size="12" fill="#C45A28" fill-opacity="0.7">❌ 拒绝突然出现的弹窗</text>
  </g>

  
  <g id="card-3">
    <path fill="#FFFFFF" d="M552,140 H748 A12,12 0 0 1 760,152 V378 A12,12 0 0 1 748,390 H552 A12,12 0 0 1 540,378 V152 A12,12 0 0 1 552,140 Z" />
    <path fill="none" stroke="#E0D8C8" stroke-width="1" d="M552,140 H748 A12,12 0 0 1 760,152 V378 A12,12 0 0 1 748,390 H552 A12,12 0 0 1 540,378 V152 A12,12 0 0 1 552,140 Z" />
    <circle cx="650" cy="190" r="24" fill="#D4A574" fill-opacity="0.1" />
    
  <g transform="translate(630.0, 170.0) scale(1.6666666666666667)" fill="#D4A574">
    <path d="M11.998 2l.118 .007l.059 .008l.061 .013l.111 .034a.993 .993 0 0 1 .217 .112l.104 .082l.255 .218a11 11 0 0 0 7.189 2.537l.342 -.01a1 1 0 0 1 1.005 .717a13 13 0 0 1 -9.208 16.25a1 1 0 0 1 -.502 0a13 13 0 0 1 -9.209 -16.25a1 1 0 0 1 1.005 -.717a11 11 0 0 0 7.531 -2.527l.263 -.225l.096 -.075a.993 .993 0 0 1 .217 -.112l.112 -.034a.97 .97 0 0 1 .119 -.021l.115 -.007zm3.71 7.293a1 1 0 0 0 -1.415 0l-3.293 3.292l-1.293 -1.292l-.094 -.083a1 1 0 0 0 -1.32 1.497l2 2l.094 .083a1 1 0 0 0 1.32 -.083l4 -4l.083 -.094a1 1 0 0 0 -.083 -1.32z" />
  </g>
    <text x="650" y="240" text-anchor="middle" font-family="&quot;Microsoft YaHei&quot;, &quot;PingFang SC&quot;, Arial, sans-serif" font-size="18" font-weight="bold" fill="#2D5016">操作信任</text>
    <text x="650" y="268" text-anchor="middle" font-family="&quot;Microsoft YaHei&quot;, &quot;PingFang SC&quot;, Arial, sans-serif" font-size="14" fill="#6B7B6B">控制权还给用户</text>
    <line x1="580" y1="285" x2="720" y2="285" stroke="#E0D8C8" stroke-width="1" />
    <text x="650" y="310" text-anchor="middle" font-family="&quot;Microsoft YaHei&quot;, &quot;PingFang SC&quot;, Arial, sans-serif" font-size="13" fill="#9B8B7B">离线时诚实标注</text>
    <text x="650" y="330" text-anchor="middle" font-family="&quot;Microsoft YaHei&quot;, &quot;PingFang SC&quot;, Arial, sans-serif" font-size="13" fill="#9B8B7B">未实现的按钮不放出</text>
    <text x="650" y="360" text-anchor="middle" font-family="&quot;Microsoft YaHei&quot;, &quot;PingFang SC&quot;, Arial, sans-serif" font-size="12" fill="#C45A28" fill-opacity="0.7">❌ 拒绝伪造用户身份</text>
  </g>

  
  <g id="card-4">
    <path fill="#FFFFFF" d="M792,140 H988 A12,12 0 0 1 1000,152 V378 A12,12 0 0 1 988,390 H792 A12,12 0 0 1 780,378 V152 A12,12 0 0 1 792,140 Z" />
    <path fill="none" stroke="#E0D8C8" stroke-width="1" d="M792,140 H988 A12,12 0 0 1 1000,152 V378 A12,12 0 0 1 988,390 H792 A12,12 0 0 1 780,378 V152 A12,12 0 0 1 792,140 Z" />
    <circle cx="890" cy="190" r="24" fill="#4A7C28" fill-opacity="0.1" />
    
  <g transform="translate(870.0, 170.0) scale(1.6666666666666667)" fill="#4A7C28">
    <path d="M6.979 3.074a6 6 0 0 1 4.988 1.425l.037 .033l.034 -.03a6 6 0 0 1 4.733 -1.44l.246 .036a6 6 0 0 1 3.364 10.008l-.18 .185l-.048 .041l-7.45 7.379a1 1 0 0 1 -1.313 .082l-.094 -.082l-7.493 -7.422a6 6 0 0 1 3.176 -10.215z" />
  </g>
    <text x="890" y="240" text-anchor="middle" font-family="&quot;Microsoft YaHei&quot;, &quot;PingFang SC&quot;, Arial, sans-serif" font-size="18" font-weight="bold" fill="#2D5016">共情细节</text>
    <text x="890" y="268" text-anchor="middle" font-family="&quot;Microsoft YaHei&quot;, &quot;PingFang SC&quot;, Arial, sans-serif" font-size="14" fill="#6B7B6B">让每个时刻被看见</text>
    <line x1="820" y1="285" x2="960" y2="285" stroke="#E0D8C8" stroke-width="1" />
    <text x="890" y="310" text-anchor="middle" font-family="&quot;Microsoft YaHei&quot;, &quot;PingFang SC&quot;, Arial, sans-serif" font-size="13" fill="#9B8B7B">时间感问候</text>
    <text x="890" y="330" text-anchor="middle" font-family="&quot;Microsoft YaHei&quot;, &quot;PingFang SC&quot;, Arial, sans-serif" font-size="13" fill="#9B8B7B">里程碑可被回应</text>
    <text x="890" y="360" text-anchor="middle" font-family="&quot;Microsoft YaHei&quot;, &quot;PingFang SC&quot;, Arial, sans-serif" font-size="12" fill="#C45A28" fill-opacity="0.7">❌ 拒绝空状态的冷漠</text>
  </g>

  
  <g id="card-5">
    <path fill="#FFFFFF" d="M1032,140 H1208 A12,12 0 0 1 1220,152 V378 A12,12 0 0 1 1208,390 H1032 A12,12 0 0 1 1020,378 V152 A12,12 0 0 1 1032,140 Z" />
    <path fill="none" stroke="#E0D8C8" stroke-width="1" d="M1032,140 H1208 A12,12 0 0 1 1220,152 V378 A12,12 0 0 1 1208,390 H1032 A12,12 0 0 1 1020,378 V152 A12,12 0 0 1 1032,140 Z" />
    <circle cx="1120" cy="190" r="24" fill="#E8A849" fill-opacity="0.1" />
    
  <g transform="translate(1100.0, 170.0) scale(1.6666666666666667)" fill="#E8A849">
    <path d="M3.055 14.328l-.018 -.168l-.004 -.043a11 11 0 0 1 -.047 -1.12c.018 -6.29 4.29 -9.997 13 -9.997h4.014a1 1 0 0 1 1 1l-.002 2.057c-.498 8.701 -4.74 12.943 -11.998 12.943h-2.631a16 16 0 0 0 -.375 2.11a1 1 0 1 1 -1.988 -.22q .174 -1.568 .58 -2.947l-.118 -.146l-.208 -.28l-.157 -.229l-.182 -.293l-.098 -.171l-.065 -.122a6 6 0 0 1 -.397 -.941l-.072 -.237l-.085 -.327l-.057 -.268l-.043 -.242zm8.539 -4.242c-2.845 1.265 -4.854 3.13 -6.108 5.583q .098 .2 .218 .4l.185 .281l.07 .097q .12 .164 .258 .329l.197 .224h.649c1.037 -2.271 2.777 -3.946 5.343 -5.086a1 1 0 0 0 -.812 -1.828" />
  </g>
    <text x="1120" y="240" text-anchor="middle" font-family="&quot;Microsoft YaHei&quot;, &quot;PingFang SC&quot;, Arial, sans-serif" font-size="18" font-weight="bold" fill="#2D5016">呼吸感</text>
    <text x="1120" y="268" text-anchor="middle" font-family="&quot;Microsoft YaHei&quot;, &quot;PingFang SC&quot;, Arial, sans-serif" font-size="14" fill="#6B7B6B">视觉的节奏与韵律</text>
    <line x1="1050" y1="285" x2="1190" y2="285" stroke="#E0D8C8" stroke-width="1" />
    <text x="1120" y="310" text-anchor="middle" font-family="&quot;Microsoft YaHei&quot;, &quot;PingFang SC&quot;, Arial, sans-serif" font-size="13" fill="#9B8B7B">渐变遮罩柔化边界</text>
    <text x="1120" y="330" text-anchor="middle" font-family="&quot;Microsoft YaHei&quot;, &quot;PingFang SC&quot;, Arial, sans-serif" font-size="13" fill="#9B8B7B">滚动条柔和显现</text>
    <text x="1120" y="360" text-anchor="middle" font-family="&quot;Microsoft YaHei&quot;, &quot;PingFang SC&quot;, Arial, sans-serif" font-size="12" fill="#C45A28" fill-opacity="0.7">❌ 拒绝硬线切割</text>
  </g>

  
  <path fill="#2D5016" fill-opacity="0.06" d="M72,430 H1208 A12,12 0 0 1 1220,442 V498 A12,12 0 0 1 1208,510 H72 A12,12 0 0 1 60,498 V442 A12,12 0 0 1 72,430 Z" />
  
  <g transform="translate(90.0, 448.0) scale(1.3333333333333333)" fill="#E8A849">
    <path d="M4 11a1 1 0 0 1 .117 1.993l-.117 .007h-1a1 1 0 0 1 -.117 -1.993l.117 -.007h1z" />
    <path d="M12 2a1 1 0 0 1 .993 .883l.007 .117v1a1 1 0 0 1 -1.993 .117l-.007 -.117v-1a1 1 0 0 1 1 -1z" />
    <path d="M21 11a1 1 0 0 1 .117 1.993l-.117 .007h-1a1 1 0 0 1 -.117 -1.993l.117 -.007h1z" />
    <path d="M4.893 4.893a1 1 0 0 1 1.32 -.083l.094 .083l.7 .7a1 1 0 0 1 -1.32 1.497l-.094 -.083l-.7 -.7a1 1 0 0 1 0 -1.414z" />
    <path d="M17.693 4.893a1 1 0 0 1 1.497 1.32l-.083 .094l-.7 .7a1 1 0 0 1 -1.497 -1.32l.083 -.094l.7 -.7z" />
    <path d="M14 18a1 1 0 0 1 1 1a3 3 0 0 1 -6 0a1 1 0 0 1 .883 -.993l.117 -.007h4z" />
    <path d="M12 6a6 6 0 0 1 3.6 10.8a1 1 0 0 1 -.471 .192l-.129 .008h-6a1 1 0 0 1 -.6 -.2a6 6 0 0 1 3.6 -10.8z" />
  </g>
  <text x="140" y="468" font-family="&quot;Microsoft YaHei&quot;, &quot;PingFang SC&quot;, Arial, sans-serif" font-size="18" fill="#2D5016" font-weight="bold">
    设计原则总纲
  </text>
  <text x="140" y="495" font-family="&quot;Microsoft YaHei&quot;, &quot;PingFang SC&quot;, Arial, sans-serif" font-size="15" fill="#6B7B6B">
    所有用户可见文案都遵循「人文关怀」五原则：<tspan fill="#4A7C28" font-weight="bold">植物视角 · 撤销优先 · 诚实优先 · 共情细节 · 呼吸感动效</tspan>
  </text>

  
  <text x="80" y="560" font-family="&quot;Microsoft YaHei&quot;, &quot;PingFang SC&quot;, Arial, sans-serif" font-size="16" font-weight="bold" fill="#2D5016">
    应避免的反模式
  </text>

  <g id="anti-patterns">
    <path fill="#C45A28" fill-opacity="0.06" d="M88,580 H332 A8,8 0 0 1 340,588 V622 A8,8 0 0 1 332,630 H88 A8,8 0 0 1 80,622 V588 A8,8 0 0 1 88,580 Z" />
    <text x="100" y="610" font-family="&quot;Microsoft YaHei&quot;, &quot;PingFang SC&quot;, Arial, sans-serif" font-size="13" fill="#C45A28">❌ 用红色/感叹号否定用户</text>

    <path fill="#C45A28" fill-opacity="0.06" d="M368,580 H612 A8,8 0 0 1 620,588 V622 A8,8 0 0 1 612,630 H368 A8,8 0 0 1 360,622 V588 A8,8 0 0 1 368,580 Z" />
    <text x="380" y="610" font-family="&quot;Microsoft YaHei&quot;, &quot;PingFang SC&quot;, Arial, sans-serif" font-size="13" fill="#C45A28">❌ 用户阅读时弹 modal 抢焦点</text>

    <path fill="#C45A28" fill-opacity="0.06" d="M648,580 H892 A8,8 0 0 1 900,588 V622 A8,8 0 0 1 892,630 H648 A8,8 0 0 1 640,622 V588 A8,8 0 0 1 648,580 Z" />
    <text x="660" y="610" font-family="&quot;Microsoft YaHei&quot;, &quot;PingFang SC&quot;, Arial, sans-serif" font-size="13" fill="#C45A28">❌ 系统写入"用户消息"</text>

    <path fill="#C45A28" fill-opacity="0.06" d="M928,580 H1172 A8,8 0 0 1 1180,588 V622 A8,8 0 0 1 1172,630 H928 A8,8 0 0 1 920,622 V588 A8,8 0 0 1 928,580 Z" />
    <text x="940" y="610" font-family="&quot;Microsoft YaHei&quot;, &quot;PingFang SC&quot;, Arial, sans-serif" font-size="13" fill="#C45A28">❌ 无撤销路径的破坏性操作</text>
  </g>

  
  <circle cx="1200" cy="80" r="15" fill="#4A7C28" fill-opacity="0.06" />
  <circle cx="50" cy="680" r="12" fill="#E8A849" fill-opacity="0.08" />

  
  <text x="1220" y="700" font-family="&quot;Microsoft YaHei&quot;, &quot;PingFang SC&quot;, Arial, sans-serif" font-size="12" fill="#9B8B7B">03 / 18</text>
</svg>